<svg xmlns="http://www.w3.org/2000/svg" viewBox="0 0 140 160">
  <path d="M66 160 C62 130 58 100 62 78 C65 62 74 50 78 38"
        fill="none" stroke="#8a5a2b" stroke-width="10" stroke-linecap="round"/>
  <g fill="#2f8f3e">
    <ellipse cx="78" cy="-4" rx="9" ry="46" transform="translate(78,38) rotate(-75)"/>
    <ellipse cx="78" cy="-4" rx="9" ry="46" transform="translate(78,38) rotate(-40)"/>
    <ellipse cx="78" cy="-4" rx="9" ry="46" transform="translate(78,38) rotate(-8)"/>
    <ellipse cx="78" cy="-4" rx="9" ry="46" transform="translate(78,38) rotate(22)"/>
    <ellipse cx="78" cy="-4" rx="9" ry="46" transform="translate(78,38) rotate(55)"/>
    <ellipse cx="78" cy="-4" rx="9" ry="46" transform="translate(78,38) rotate(88)"/>
  </g>
  <g fill="#6b4423">
    <circle cx="72" cy="42" r="7"/>
    <circle cx="84" cy="43" r="7"/>
    <circle cx="78" cy="50" r="7"/>
  </g>
</svg>
